# AST/ASF file generated using VICON BodyLanguage
# -----------------------------------------------
:version 1.10
:name VICON
:units
  mass 1.0
  length 0.45
  angle deg
:documentation
   .ast/.asf automatically generated from VICON data using
   VICON BodyBuilder and BodyLanguage model FoxedUp or BRILLIANT.MOD
:root
   order TX TY TZ RX RY RZ
   axis XYZ
   position 0 0 0  
   orientation 0 0 0 
:bonedata
  begin
     id 1 
     name lhipjoint
     direction 0.682418 -0.694059 0.22932 
     length 2.25561 
     axis 0 0 0  XYZ
  end
  begin
     id 2 
     name lfemur
     direction 0.34202 -0.939693 0  
     length 6.96448  
     axis 0 0 20  XYZ
    dof rx ry rz
    limits (-160.0 20.0)
           (-70.0 70.0)
           (-60.0 70.0)
  end
  begin
     id 3 
     name ltibia
     direction 0.34202 -0.939693 0   
     length 6.88553   
     axis 0 0 20   XYZ
    dof rx
    limits (-10.0 170.0)
  end
  begin
     id 4 
     name lfoot
     direction 0.0723587 -0.198804 0.977364   
     length 1.88518   
     axis -90 7.62852e-016 20   XYZ
    dof rx rz
    limits (-45.0 90.0)
           (-70.0 20.0)
  end
  begin
     id 5 
     name ltoes
     direction 1.53558e-011 -4.21962e-011 1   
     length 0.952124   
     axis -90 7.62852e-016 20   XYZ
    dof rx
    limits (-90.0 20.0)
  end
  begin
     id 6 
     name rhipjoint
     direction -0.657603 -0.71533 0.236348   
     length 2.18854  
     axis 0 0 0  XYZ 
  end
  begin
     id 7 
     name rfemur
     direction -0.34202 -0.939693 0   
     length 6.86686   
     axis 0 0 -20   XYZ
    dof rx ry rz
    limits (-160.0 20.0)
           (-70.0 70.0)
           (-70.0 60.0)
  end
  begin
     id 8 
     name rtibia
     direction -0.34202 -0.939693 0   
     length 6.59503   
     axis 0 0 -20   XYZ
    dof rx
    limits (-10.0 170.0)
 end
 begin
     id 9 
     name rfoot
     direction -0.101977 -0.280179 0.954516   
     length 1.93723  
     axis -90 -7.62852e-016 -20   XYZ
    dof rx rz
    limits (-45.0 90.0)
           (-20.0 70.0)
  end
  begin
     id 10 
     name rtoes
     direction -1.53564e-011 -4.21897e-011 1   
     length 0.970315   
     axis -90 -7.62852e-016 -20   XYZ
    dof rx
    limits (-90.0 20.0)
  end
  begin
     id 11 
     name lowerback
     direction -0.0339559 0.999421 -0.00235966   
     length 1.88543   
     axis 0 0 0   XYZ
    dof rx ry rz
    limits (-20.0 45.0)
           (-30.0 30.0)
           (-30.0 30.0)
  end
  begin
     id 12 
     name upperback
     direction 0.00401003 0.999739 0.0224689   
     length 1.8856   
     axis 0 0 0   XYZ
    dof rx ry rz
    limits (-20.0 45.0)
           (-30.0 30.0)
           (-30.0 30.0)
  end
  begin
     id 13 
     name thorax
     direction 0.0198619 0.999546 0.0226536   
     length 1.88352   
     axis 0 0 0   XYZ
    dof rx ry rz
    limits (-20.0 45.0)
           (-30.0 30.0)
           (-30.0 30.0)
  end
  begin
     id 14 
     name lowerneck
     direction -0.0461848 0.998632 0.0245198   
     length 1.34895   
     axis 0 0 0   XYZ
    dof rx ry rz
    limits (-20.0 45.0)
           (-30.0 30.0)
           (-30.0 30.0)
  end
  begin
     id 15 
     name upperneck
     direction -0.0180627 0.994724 -0.100984   
     length 1.35214   
     axis 0 0 0   XYZ
    dof rx ry rz
    limits (-20.0 45.0)
           (-30.0 30.0)
           (-30.0 30.0)
  end
  begin
     id 16
     name head
     direction -0.00374772 0.999293 -0.037403  
     length 1.3568  
     axis 0 0 0   XYZ
    dof rx ry rz
    limits (-20.0 45.0)
           (-30.0 30.0)
           (-30.0 30.0)
  end
  begin
     id 17 
     name lclavicle
     direction 0.971773 0.191119 0.138311  
     length 2.84954  
     axis 0 0 0   XYZ
    dof ry rz
    limits (-20.0 10.0)
           (0.0 20.0)
  end
  begin
     id 18 
     name lhumerus
     direction 1 -4.4897e-011 -2.43761e-027   
     length 4.40919   
     axis 180 -30 -90   XYZ
    dof rx ry rz
    limits (-60.0 90.0)
           (-90.0 90.0)
           (-90.0 90.0)
  end
  begin
     id 19
     name lradius
     direction 1 -4.4896e-011 -9.1621e-027   
     length 3.03857   
     axis 180 -30 -90   XYZ
    dof rx
    limits (-10.0 170.0)
  end
  begin
     id 20
     name lwrist
     direction 1 -4.4896e-011 -1.41363e-026   
     length 1.51928   
     axis 1.07133e-014 90 90   XYZ
    dof ry
    limits (-180.0 0.0)
 end
  begin
     id 21 
     name lhand
     direction 1 -4.48978e-011 -2.82725e-026   
     length 0.523208   
     axis 1.80403e-014 90 90   XYZ
    dof rx rz
    limits (-90.0 90.0)
           (-45.0 45.0)
  end
  begin
     id 22 
     name lfingers
     direction 1 -4.48977e-011 -5.6545e-026   
     length 0.421824   
     axis 3.60806e-014 90 90   XYZ
    dof rx
    limits (0.0 90.0)
  end
  begin
     id 23
     name lthumb
     direction 0.707107 -6.34962e-011 0.707107   
     length 0.605657   
     axis -90 45 2.85299e-015   XYZ
    dof rx rz
    limits (-45.0 45.0)
           (-45.0 45.0)
  end
  begin
     id 24 
     name rclavicle
     direction -0.957247 0.24311 0.156766   
     length 3.12406  
     axis 0 0 0   XYZ 
    dof ry rz
    limits (-10.0 20.0)
           (-20.0 0.0)
  end
  begin
     id 25 
     name rhumerus
     direction -1 -4.48964e-011 -1.70632e-027  
     length 4.61969   
     axis 180 30 90   XYZ
    dof rx ry rz
    limits (-90.0 60.0)
           (-90.0 90.0)
           (-90.0 90.0)
  end
  begin
     id 26 
     name rradius
     direction -1 -4.48966e-011 -6.60395e-027   
     length 3.09382   
     axis 180 30 90   XYZ
    dof rx
    limits (-10.0 170.0)
  end
  begin
     id 27 
     name rwrist
     direction -1 -4.48963e-011 -1.41363e-026   
     length 1.54691   
     axis 1.07133e-014 -90 -90   XYZ
    dof ry
    limits (-180.0 0.0)
  end
  begin
     id 28
     name rhand
     direction -1 -4.49013e-011 -2.82725e-026   
     length 0.500896   
     axis 1.80403e-014 -90 -90   XYZ
    dof rx rz
    limits (-90.0 90.0)
           (-45.0 45.0)
  end
  begin
     id 29
     name rfingers
     direction -1 -4.48902e-011 -5.6545e-026   
     length 0.403835   
     axis 3.60806e-014 -90 -90   XYZ
    dof rx
    limits (0.0 90.0)
  end
  begin
     id 30
     name rthumb
     direction -0.707107 -6.34953e-011 0.707107   
     length 0.579829   
     axis -90 -45 -2.85299e-015   XYZ
    dof rx rz
    limits (-45.0 45.0)
           (-45.0 45.0)
  end
:hierarchy
  begin
    root lhipjoint rhipjoint lowerback
    lhipjoint lfemur
    lfemur ltibia
    ltibia lfoot
    lfoot ltoes
    rhipjoint rfemur
    rfemur rtibia
    rtibia rfoot
    rfoot rtoes
    lowerback upperback
    upperback thorax
    thorax lowerneck lclavicle rclavicle
    lowerneck upperneck
    upperneck head
    lclavicle lhumerus
    lhumerus lradius
    lradius lwrist
    lwrist lhand lthumb
    lhand lfingers
    rclavicle rhumerus
    rhumerus rradius
    rradius rwrist
    rwrist rhand rthumb
    rhand rfingers
  end

#!OML:ASF E:\madness\Project 1\Capture day 1\Session 1\Female1.ASF
:FULLY-SPECIFIED
:DEGREES
199
root 2.36804 16.0937 -1.58731 5.86021 -33.9286 0.646032
lowerback -4.80177 4.6035 -1.25742
upperback -5.1877 6.11896 -0.559592
thorax -2.73713 3.0763 0.261235
lowerneck -1.02559 0.871083 -0.33091
upperneck 17.5947 1.69333 -3.59963
head 5.492 0.536235 -0.990427
rclavicle -1.59773e-014 1.0635e-014
rhumerus -56.99 -12.931 -58.6522
rradius 41.6851
rwrist 1.62921
rhand -13.5639 -45.5816
rfingers 7.12502
rthumb 12.5495 -75.1848
lclavicle -1.59773e-014 1.0635e-014
lhumerus -65.0343 8.58095 74.2983
lradius 76.1334
lwrist -3.16622
lhand -24.8745 -13.4992
lfingers 7.12502
lthumb 1.63278 16.4743
rfemur -3.67672 -3.27335 28.5476
rtibia 16.9464
rfoot -41.7773 -36.5449
rtoes 38.5352
lfemur -29.2312 -30.3277 -6.94008
ltibia 25.1878
lfoot -12.4334 -17.1791
ltoes 18.3222
200
root 2.36925 16.0951 -1.59029 5.82584 -33.811 0.869085
lowerback -4.86921 4.70069 -1.42091
upperback -5.2149 6.25206 -0.625471
thorax -2.74079 3.14703 0.290265
lowerneck -0.876151 0.831627 -0.524167
upperneck 17.4177 1.62609 -3.47402
head 5.40827 0.504669 -0.922243
rclavicle -4.11236e-015 -2.78299e-015
rhumerus -56.9856 -13.0829 -58.6394
rradius 41.8916
rwrist 1.8738
rhand -13.5973 -45.8328
rfingers 7.12502
rthumb 12.5174 -75.4378
lclavicle -4.11236e-015 -2.78299e-015
lhumerus -65.2613 8.36692 74.5498
lradius 76.3868
lwrist -3.2195
lhand -25.0674 -13.2638
lfingers 7.12502
lthumb 1.44644 16.711
rfemur -3.84847 -3.37779 28.3694
rtibia 17.0363
rfoot -42.2417 -36.4366
rtoes 38.8953
lfemur -29.361 -30.3797 -7.06387
ltibia 25.1053
lfoot -12.2595 -17.2279
ltoes 18.4903
201
root 2.36693 16.1021 -1.59056 5.85449 -33.7821 1.06031
lowerback -5.08846 4.71846 -1.67178
upperback -5.22314 6.2853 -0.626676
thorax -2.65589 3.1713 0.445661
lowerneck -0.811358 0.864455 -0.523535
upperneck 17.3553 1.6741 -3.51095
head 5.37887 0.527862 -0.931642
rclavicle -9.75349e-014 -5.06901e-015
rhumerus -56.8013 -12.9369 -58.8496
rradius 42.1122
rwrist 2.00169
rhand -14.2018 -45.6699
rfingers 7.12502
rthumb 11.9345 -75.3097
lclavicle -9.75349e-014 -5.06901e-015
lhumerus -65.5424 8.31694 74.6799
lradius 76.6568
lwrist -3.04797
lhand -25.2892 -12.7874
lfingers 7.12502
lthumb 1.23228 17.1888
rfemur -4.09091 -3.15303 28.1971
rtibia 17.205
rfoot -43.1741 -36.2492
rtoes 39.2642
lfemur -29.4965 -30.4618 -7.11086
ltibia 24.9722
lfoot -12.0971 -17.1546
ltoes 18.4905
202
root 2.36476 16.1082 -1.59043 5.881 -33.8078 1.12073
lowerback -5.21117 4.7611 -1.75437
upperback -5.23084 6.34596 -0.638827
thorax -2.60511 3.20377 0.490363
lowerneck -0.662884 0.876165 -0.468485
upperneck 17.1856 1.68726 -3.56372
head 5.30172 0.539181 -0.956898
rclavicle 3.84338e-014 -2.88238e-015
rhumerus -56.6745 -12.5877 -59.275
rradius 42.4225
rwrist 1.66928
rhand -14.5957 -45.5634
rfingers 7.12502
rthumb 11.5547 -75.2249
lclavicle 3.84338e-014 -2.88238e-015
lhumerus -65.7616 8.25753 74.7481
lradius 76.8282
lwrist -2.80298
lhand -25.3482 -12.8023
lfingers 7.12502
lthumb 1.1753 17.1742
rfemur -4.2196 -2.85134 28.1223
rtibia 17.373
rfoot -43.5724 -36.1387
rtoes 39.8453
lfemur -29.5179 -30.5123 -7.09546
ltibia 24.8567
lfoot -11.9973 -17.1513
ltoes 18.5001
203
root 2.3656 16.1052 -1.58945 5.89705 -33.7756 1.12795
lowerback -5.26703 4.79904 -1.72474
upperback -5.23763 6.39585 -0.669679
thorax -2.5755 3.22709 0.448868
lowerneck -0.508214 0.884034 -0.427647
upperneck 16.9918 1.68939 -3.57686
head 5.21561 0.547249 -0.967904
rclavicle -6.89907e-014 -8.34896e-015
rhumerus -56.5883 -12.2955 -59.6959
rradius 42.7495
rwrist 1.29217
rhand -14.5956 -45.6504
rfingers 7.12502
rthumb 11.5547 -75.3119
lclavicle -6.89907e-014 -8.34896e-015
lhumerus -65.9723 8.27485 74.731
lradius 76.9358
lwrist -2.85046
lhand -25.322 -13.2321
lfingers 7.12502
lthumb 1.20056 16.7442
rfemur -4.28384 -3.06221 28.1345
rtibia 17.4332
rfoot -42.4908 -36.6703
rtoes 38.2388
lfemur -29.5331 -30.5105 -7.09955
ltibia 24.8251
lfoot -11.8868 -17.1838
ltoes 18.5449
204
root 2.36428 16.0989 -1.58722 5.96697 -33.7123 1.00183
lowerback -5.33426 4.81761 -1.61177
upperback -5.23788 6.41827 -0.658793
thorax -2.52749 3.23478 0.405436
lowerneck -0.404225 0.878148 -0.492172
upperneck 16.859 1.65903 -3.43917
head 5.15492 0.540497 -0.915787
rclavicle -5.46534e-014 -5.96354e-016
rhumerus -56.4817 -12.1134 -60.0534
rradius 43.0197
rwrist 1.15685
rhand -14.8332 -45.4529
rfingers 7.12502
rthumb 11.3256 -75.1271
lclavicle -5.46534e-014 -5.96354e-016
lhumerus -66.1973 8.36074 74.6581
lradius 77.0168
lwrist -3.04979
lhand -25.1992 -13.4684
lfingers 7.12502
lthumb 1.31917 16.5072
rfemur -4.32461 -3.51909 28.3007
rtibia 17.391
rfoot -40.8421 -37.6568
rtoes 35.6705
lfemur -29.5692 -30.4987 -6.99465
ltibia 24.8744
lfoot -12.694 -17.2211
ltoes 19.2423
205
root 2.36034 16.0951 -1.58762 6.03905 -33.705 0.850677
lowerback -5.39068 4.81406 -1.56957
upperback -5.2316 6.41415 -0.588209
thorax -2.49303 3.23258 0.459776
lowerneck -0.340336 0.837933 -0.672341
upperneck 16.7691 1.57633 -3.20947
head 5.11241 0.505199 -0.818135
rclavicle -8.51047e-014 -1.41137e-014
rhumerus -56.2848 -11.8763 -60.3927
rradius 43.1883
rwrist 1.12548
rhand -15.0563 -44.9945
rfingers 7.12502
rthumb 11.1105 -74.6804
lclavicle -8.51047e-014 -1.41137e-014
lhumerus -66.4926 8.64628 74.5483
lradius 77.1442
lwrist -3.28121
lhand -25.0449 -13.5844
lfingers 7.12502
lthumb 1.46821 16.3903
rfemur -4.30476 -3.7009 28.4734
rtibia 17.3106
rfoot -39.9893 -38.2225
rtoes 34.3361
lfemur -29.6048 -30.5032 -6.83863
ltibia 24.95
lfoot -12.509 -17.2691
ltoes 18.7198
206
root 2.35537 16.096 -1.59054 6.05172 -33.6625 0.847197
lowerback -5.48803 4.78026 -1.71834
upperback -5.19569 6.37728 -0.512067
thorax -2.42645 3.21976 0.628144
lowerneck -0.255899 0.996829 -0.7426
upperneck 16.5832 1.77798 -3.12435
head 5.04238 0.609237 -0.77108
rclavicle -7.81969e-014 -1.07841e-014
rhumerus -56.1096 -11.6958 -60.6423
rradius 43.4909
rwrist 1.12646
rhand -15.0386 -44.8441
rfingers 7.12502
rthumb 11.1275 -74.5291
lclavicle -7.81969e-014 -1.07841e-014
lhumerus -66.7635 8.95297 74.5107
lradius 77.3772
lwrist -3.34592
lhand -25.1231 -13.4798
lfingers 7.12502
lthumb 1.39263 16.4954
rfemur -4.26581 -3.60922 28.5066
rtibia 17.201
rfoot -40.1066 -38.3121
rtoes 34.563
lfemur -29.6801 -30.4748 -6.8189
ltibia 25.013
lfoot -12.3534 -17.3609
ltoes 18.696
207
root 2.35295 16.0993 -1.5932 6.04295 -33.5862 0.861208
lowerback -5.5189 4.7698 -1.81089
upperback -5.17272 6.36815 -0.4714
thorax -2.40034 3.21864 0.723695
lowerneck -0.733136 0.829294 -0.7857
upperneck 17.1571 1.58079 -3.14271
head 5.29843 0.494481 -0.777176
rclavicle 1.30272e-013 9.39258e-015
rhumerus -56.0339 -11.6012 -60.855
rradius 43.8643
rwrist 1.0581
rhand -15.3431 -44.7449
rfingers 7.12502
rthumb 10.8338 -74.4455
lclavicle 1.30272e-013 9.39258e-015
lhumerus -66.9446 8.93298 74.6405
lradius 77.567
lwrist -3.19924
lhand -25.2046 -13.3733
lfingers 7.12502
lthumb 1.31392 16.6024
rfemur -4.21036 -3.49879 28.5149
rtibia 17.0748
rfoot -40.37 -38.3496
rtoes 34.951
lfemur -29.7276 -30.4375 -6.84158
ltibia 25.0502
lfoot -12.2341 -17.4665
ltoes 18.9283
208
root 2.35235 16.1003 -1.59571 5.99978 -33.5772 0.824167
lowerback -5.45055 4.80319 -1.80352
upperback -5.16101 6.41211 -0.444669
thorax -2.4296 3.24115 0.74227
lowerneck -0.512172 0.900282 -0.868932
upperneck 16.8066 1.65345 -3.03901
head 5.15189 0.539925 -0.728033
rclavicle 8.2154e-014 1.2921e-014
rhumerus -56.0003 -11.396 -61.1549
rradius 44.1951
rwrist 0.939076
rhand -15.6367 -44.4804
rfingers 7.12502
rthumb 10.5507 -74.1956
lclavicle 8.2154e-014 1.2921e-014
lhumerus -67.122 8.91198 74.7888
lradius 77.63
lwrist -3.21874
lhand -25.3223 -13.1129
lfingers 7.12502
lthumb 1.20033 16.8635
rfemur -4.04805 -3.29181 28.5344
rtibia 16.9858
rfoot -41.0529 -37.9079
rtoes 35.8492
lfemur -29.6498 -30.496 -6.79618
ltibia 25.0587
lfoot -12.554 -17.5159
ltoes 20.1404
